# AST/ASF file generated using VICON BodyLanguage
# -----------------------------------------------
:version 1.10
:name VICON
:units
  mass 1.0
  length 0.45
  angle deg
:documentation
   .ast/.asf automatically generated from VICON data using
   VICON BodyBuilder and BodyLanguage model FoxedUp or BRILLIANT.MOD
:root
   order TX TY TZ RX RY RZ
   axis XYZ
   position 0 0 0  
   orientation 0 0 0 
:bonedata
  begin
     id 1 
     name lhipjoint
     direction 0.537252 -0.787203 0.302774 
     length 2.29576 
     axis 0 0 0  XYZ
  end
  begin
     id 2 
     name lfemur
     direction 0.34202 -0.939693 0  
     length 7.31114  
     axis 0 0 20  XYZ
    dof rx ry rz
    limits (-160.0 20.0)
           (-70.0 70.0)
           (-60.0 70.0)
  end
  begin
     id 3 
     name ltibia
     direction 0.34202 -0.939693 0   
     length 8.36008   
     axis 0 0 20   XYZ
    dof rx
    limits (-10.0 170.0)
  end
  begin
     id 4 
     name lfoot
     direction 0.0969116 -0.266263 0.959016   
     length 2.16704   
     axis -90 7.62852e-016 20   XYZ
    dof rx rz
    limits (-45.0 90.0)
           (-70.0 20.0)
  end
  begin
     id 5 
     name ltoes
     direction 1.53563e-011 -4.21779e-011 1   
     length 1.08338   
     axis -90 7.62852e-016 20   XYZ
    dof rx
    limits (-90.0 20.0)
  end
  begin
     id 6 
     name rhipjoint
     direction -0.588228 -0.754791 0.290308   
     length 2.39434  
     axis 0 0 0  XYZ 
  end
  begin
     id 7 
     name rfemur
     direction -0.34202 -0.939693 0   
     length 7.45207   
     axis 0 0 -20   XYZ
    dof rx ry rz
    limits (-160.0 20.0)
           (-70.0 70.0)
           (-70.0 60.0)
  end
  begin
     id 8 
     name rtibia
     direction -0.34202 -0.939693 0   
     length 8.03565   
     axis 0 0 -20   XYZ
    dof rx
    limits (-10.0 170.0)
 end
 begin
     id 9 
     name rfoot
     direction -0.107009 -0.294004 0.949795   
     length 2.11509  
     axis -90 -7.62852e-016 -20   XYZ
    dof rx rz
    limits (-45.0 90.0)
           (-20.0 70.0)
  end
  begin
     id 10 
     name rtoes
     direction -1.53533e-011 -4.22004e-011 1   
     length 1.05493   
     axis -90 -7.62852e-016 -20   XYZ
    dof rx
    limits (-90.0 20.0)
  end
  begin
     id 11 
     name lowerback
     direction -0.0115208 0.997969 -0.0626515   
     length 2.03153   
     axis 0 0 0   XYZ
    dof rx ry rz
    limits (-20.0 45.0)
           (-30.0 30.0)
           (-30.0 30.0)
  end
  begin
     id 12 
     name upperback
     direction -0.00423475 0.999974 -0.00583614   
     length 2.03619   
     axis 0 0 0   XYZ
    dof rx ry rz
    limits (-20.0 45.0)
           (-30.0 30.0)
           (-30.0 30.0)
  end
  begin
     id 13 
     name thorax
     direction 0.00289429 0.999728 0.0231573   
     length 2.03921   
     axis 0 0 0   XYZ
    dof rx ry rz
    limits (-20.0 45.0)
           (-30.0 30.0)
           (-30.0 30.0)
  end
  begin
     id 14 
     name lowerneck
     direction 0.0188995 0.987777 0.154721   
     length 1.78836   
     axis 0 0 0   XYZ
    dof rx ry rz
    limits (-20.0 45.0)
           (-30.0 30.0)
           (-30.0 30.0)
  end
  begin
     id 15 
     name upperneck
     direction -0.00612612 0.992995 -0.118   
     length 1.81789   
     axis 0 0 0   XYZ
    dof rx ry rz
    limits (-20.0 45.0)
           (-30.0 30.0)
           (-30.0 30.0)
  end
  begin
     id 16
     name head
     direction -0.00420226 0.998397 -0.0564482  
     length 1.82234  
     axis 0 0 0   XYZ
    dof rx ry rz
    limits (-20.0 45.0)
           (-30.0 30.0)
           (-30.0 30.0)
  end
  begin
     id 17 
     name lclavicle
     direction 0.916488 0.396539 0.0529676  
     length 3.51732  
     axis 0 0 0   XYZ
    dof ry rz
    limits (-20.0 10.0)
           (0.0 20.0)
  end
  begin
     id 18 
     name lhumerus
     direction 1 -4.4896e-011 8.36962e-028   
     length 5.45077   
     axis 180 -30 -90   XYZ
    dof rx ry rz
    limits (-60.0 90.0)
           (-90.0 90.0)
           (-90.0 90.0)
  end
  begin
     id 19
     name lradius
     direction 1 -4.48962e-011 3.01407e-027   
     length 3.05488   
     axis 180 -30 -90   XYZ
    dof rx
    limits (-10.0 170.0)
  end
  begin
     id 20
     name lwrist
     direction 1 -4.49002e-011 4.72961e-027   
     length 1.52744   
     axis -2.72261e-015 90 90   XYZ
    dof ry
    limits (-180.0 0.0)
 end
  begin
     id 21 
     name lhand
     direction 1 -4.4899e-011 9.45681e-027   
     length 0.638818   
     axis -6.0311e-015 90 90   XYZ
    dof rx rz
    limits (-90.0 90.0)
           (-45.0 45.0)
  end
  begin
     id 22 
     name lfingers
     direction 1 -4.48871e-011 1.88632e-026   
     length 0.515032   
     axis -1.20625e-014 90 90   XYZ
    dof rx
    limits (0.0 90.0)
  end
  begin
     id 23
     name lthumb
     direction 0.707107 -6.34964e-011 0.707107   
     length 0.739485   
     axis -90 45 6.32835e-014   XYZ
    dof rx rz
    limits (-45.0 45.0)
           (-45.0 45.0)
  end
  begin
     id 24 
     name rclavicle
     direction -0.949427 0.303202 0.0815894   
     length 3.76167  
     axis 0 0 0   XYZ 
    dof ry rz
    limits (-10.0 20.0)
           (-20.0 0.0)
  end
  begin
     id 25 
     name rhumerus
     direction -1 -4.48971e-011 -6.43969e-018  
     length 4.88702   
     axis 180 30 90   XYZ
    dof rx ry rz
    limits (-90.0 60.0)
           (-90.0 90.0)
           (-90.0 90.0)
  end
  begin
     id 26 
     name rradius
     direction -1 -4.48987e-011 5.46662e-027   
     length 3.22603   
     axis 180 30 90   XYZ
    dof rx
    limits (-10.0 170.0)
  end
  begin
     id 27 
     name rwrist
     direction -1 -4.48956e-011 4.72476e-027   
     length 1.61302   
     axis -2.72261e-015 -90 -90   XYZ
    dof ry
    limits (-180.0 0.0)
  end
  begin
     id 28
     name rhand
     direction -1 -4.4889e-011 9.43571e-027   
     length 0.716293   
     axis -6.0311e-015 -90 -90   XYZ
    dof rx rz
    limits (-90.0 90.0)
           (-45.0 45.0)
  end
  begin
     id 29
     name rfingers
     direction -1 -4.48887e-011 1.88701e-026   
     length 0.577494   
     axis -1.20625e-014 -90 -90   XYZ
    dof rx
    limits (0.0 90.0)
  end
  begin
     id 30
     name rthumb
     direction -0.707107 -6.34825e-011 0.707107   
     length 0.829169   
     axis -90 -45 -6.32835e-014   XYZ
    dof rx rz
    limits (-45.0 45.0)
           (-45.0 45.0)
  end
:hierarchy
  begin
    root lhipjoint rhipjoint lowerback
    lhipjoint lfemur
    lfemur ltibia
    ltibia lfoot
    lfoot ltoes
    rhipjoint rfemur
    rfemur rtibia
    rtibia rfoot
    rfoot rtoes
    lowerback upperback
    upperback thorax
    thorax lowerneck lclavicle rclavicle
    lowerneck upperneck
    upperneck head
    lclavicle lhumerus
    lhumerus lradius
    lradius lwrist
    lwrist lhand lthumb
    lhand lfingers
    rclavicle rhumerus
    rhumerus rradius
    rradius rwrist
    rwrist rhand rthumb
    rhand rfingers
  end

#!OML:ASF F:\VICON\USERDATA\INSTALL\rory3\rory3.ASF
:FULLY-SPECIFIED
:DEGREES
671
root 1.70478 18.4714 0.135964 24.4421 92.2223 14.2041
lowerback -8.88281 -1.27439 0.520399
upperback -3.06738 -1.6577 0.399624
thorax 1.79787 -0.78822 -0.0487281
lowerneck -15.0357 -2.58533 -0.480359
upperneck 19.6473 -3.46249 0.655291
head 8.63037 -1.53641 -0.0976294
rclavicle -4.18181e-015 7.50412e-015
rhumerus -30.5005 -8.06007 -85.4936
rradius 39.2082
rwrist -154.776
rhand -22.624 -7.41528
rfingers 7.12502
rthumb 3.80619 -37.361
lclavicle -4.18181e-015 7.50412e-015
lhumerus -36.8025 -14.3611 92.8585
lradius 34.2862
lwrist 12.349
lhand -9.49698 26.8445
lfingers 7.12502
lthumb 16.468 56.1655
rfemur -2.75301 -12.655 18.2116
rtibia -1.59028e-015
rfoot -7.01235 0.64624
rtoes -15.9176
lfemur -12.5525 8.08475 -16.9019
ltibia 19.1534
lfoot -15.8368 -3.4429
ltoes -28.046
672
root 1.70449 18.4724 0.13979 23.8944 92.208 13.6212
lowerback -8.94172 -1.24727 0.49522
upperback -3.05621 -1.61958 0.385107
thorax 1.84233 -0.768996 -0.0471482
lowerneck -15.1031 -2.5558 -0.351743
upperneck 19.7124 -3.41847 0.49826
head 8.65893 -1.52165 -0.16787
rclavicle -1.97169e-015 5.14355e-015
rhumerus -30.4897 -8.08699 -85.4749
rradius 39.2123
rwrist -154.798
rhand -22.5693 -7.39518
rfingers 7.12502
rthumb 3.85898 -37.34
lclavicle -1.97169e-015 5.14355e-015
lhumerus -36.7902 -14.5297 92.8852
lradius 34.3327
lwrist 12.4191
lhand -9.50036 26.7412
lfingers 7.12502
lthumb 16.4647 56.0626
rfemur -2.80139 -12.6517 18.1966
rtibia -1.43125e-014
rfoot -7.01808 0.642653
rtoes -15.6979
lfemur -12.5858 8.05417 -16.9249
ltibia 19.1336
lfoot -15.8045 -3.36292
ltoes -28.1861
673
root 1.70432 18.4712 0.142603 22.2427 92.1825 11.9686
lowerback -8.95703 -1.23261 0.440862
upperback -3.06376 -1.59454 0.361483
thorax 1.84391 -0.756315 -0.0386536
lowerneck -15.2044 -2.52281 -0.27448
upperneck 19.9157 -3.36231 0.37169
head 8.74246 -1.49927 -0.219398
rclavicle -1.33535e-014 -2.77056e-015
rhumerus -30.5204 -8.02727 -85.4416
rradius 39.1996
rwrist -154.941
rhand -22.6027 -7.38261
rfingers 7.12502
rthumb 3.82679 -37.328
lclavicle -1.33535e-014 -2.77056e-015
lhumerus -36.8205 -14.5437 92.879
lradius 34.3788
lwrist 12.4147
lhand -9.53357 26.7265
lfingers 7.12502
lthumb 16.4328 56.0504
rfemur -2.80981 -12.6522 18.1346
rtibia 1.11319e-014
rfoot -6.99645 0.627848
rtoes -15.899
lfemur -12.5563 8.02612 -16.9934
ltibia 19.0956
lfoot -15.8129 -3.32437
ltoes -28.2368
674
root 1.70566 18.47 0.144617 21.4544 92.1871 11.1852
lowerback -8.98484 -1.21409 0.450453
upperback -3.06616 -1.57002 0.338255
thorax 1.85591 -0.744017 -0.0660191
lowerneck -15.2586 -2.49946 -0.254171
upperneck 20.0841 -3.32392 0.330735
head 8.80861 -1.48091 -0.233869
rclavicle 8.621e-016 3.60297e-016
rhumerus -30.5524 -8.01917 -85.4202
rradius 39.1956
rwrist -155.063
rhand -22.6514 -7.33936
rfingers 7.12502
rthumb 3.77978 -37.2856
lclavicle 8.621e-016 3.60297e-016
lhumerus -36.8619 -14.6332 92.8962
lradius 34.4485
lwrist 12.4333
lhand -9.48467 26.8378
lfingers 7.12502
lthumb 16.4798 56.1579
rfemur -2.80256 -12.6668 18.1119
rtibia 3.18055e-015
rfoot -7.01425 0.621968
rtoes -16.1941
lfemur -12.535 8.02549 -17.0204
ltibia 19.075
lfoot -15.8134 -3.34909
ltoes -28.2736
675
root 1.70558 18.4707 0.148698 20.9884 92.1729 10.7192
lowerback -9.01254 -1.17776 0.435449
upperback -3.05474 -1.52043 0.32074
thorax 1.88309 -0.719284 -0.0712482
lowerneck -15.3093 -2.47711 -0.180163
upperneck 20.1972 -3.28244 0.207863
head 8.85271 -1.46698 -0.284164
rclavicle -6.36361e-015 -7.43579e-015
rhumerus -30.5363 -8.04092 -85.3821
rradius 39.2204
rwrist -155.127
rhand -22.7573 -7.31321
rfingers 7.12502
rthumb 3.6775 -37.2612
lclavicle -6.36361e-015 -7.43579e-015
lhumerus -36.8459 -14.7387 92.9155
lradius 34.4787
lwrist 12.4513
lhand -9.40312 26.8886
lfingers 7.12502
lthumb 16.5584 56.2021
rfemur -2.80756 -12.6589 18.0994
rtibia 1.19271e-014
rfoot -7.00886 0.634716
rtoes -16.2946
lfemur -12.5213 7.95029 -17.0195
ltibia 19.0551
lfoot -15.8374 -3.30652
ltoes -27.9746
676
root 1.70356 18.4713 0.154511 21.4559 92.2258 11.1975
lowerback -9.00387 -1.19381 0.446987
upperback -3.04258 -1.54376 0.343205
thorax 1.8911 -0.73102 -0.0569685
lowerneck -15.4071 -2.37172 -0.0974175
upperneck 20.3527 -3.12828 0.0877739
head 8.92003 -1.3986 -0.32239
rclavicle -3.28349e-015 3.95085e-015
rhumerus -30.4946 -7.93413 -85.3851
rradius 39.2322
rwrist -155.125
rhand -22.8551 -7.31039
rfingers 7.12502
rthumb 3.58305 -37.26
lclavicle -3.28349e-015 3.95085e-015
lhumerus -36.8049 -14.7443 92.9055
lradius 34.4511
lwrist 12.4697
lhand -9.1319 26.996
lfingers 7.12502
lthumb 16.8195 56.2875
rfemur -2.79488 -12.6988 18.1536
rtibia -3.97569e-015
rfoot -6.99387 0.672136
rtoes -15.9223
lfemur -12.5204 7.89044 -16.9511
ltibia 19.0494
lfoot -15.8149 -3.30166
ltoes -27.8425
677
root 1.70388 18.4712 0.159989 21.134 92.3093 10.9091
lowerback -8.97692 -1.23701 0.443721
upperback -3.05095 -1.60098 0.361831
thorax 1.86802 -0.759503 -0.0411799
lowerneck -15.5205 -2.23797 -0.064362
upperneck 20.6498 -2.93109 0.0197527
head 9.04126 -1.30572 -0.33046
rclavicle -1.36185e-014 2.23633e-015
rhumerus -30.5237 -7.85826 -85.3816
rradius 39.2238
rwrist -155.144
rhand -22.9319 -7.46086
rfingers 7.12502
rthumb 3.50891 -37.4117
lclavicle -1.36185e-014 2.23633e-015
lhumerus -36.8226 -14.755 92.8949
lradius 34.437
lwrist 12.5375
lhand -8.71893 27.257
lfingers 7.12502
lthumb 17.217 56.5143
rfemur -2.74077 -12.7777 18.1827
rtibia -5.56597e-015
rfoot -7.02773 0.700864
rtoes -15.5808
lfemur -12.5101 7.91438 -16.9114
ltibia 19.064
lfoot -15.8073 -3.38834
ltoes -27.8891
678
root 1.70594 18.4712 0.16544 21.4109 92.3345 11.2032
lowerback -8.99004 -1.25151 0.466643
upperback -3.05539 -1.62236 0.377408
thorax 1.8704 -0.770025 -0.0404316
lowerneck -15.6304 -2.08804 0.012067
upperneck 20.9496 -2.69955 -0.141486
head 9.16138 -1.20392 -0.372949
rclavicle 1.97464e-014 3.54085e-015
rhumerus -30.551 -7.78125 -85.3752
rradius 39.1989
rwrist -155.238
rhand -22.831 -7.47245
rfingers 7.12502
rthumb 3.60633 -37.4217
lclavicle 1.97464e-014 3.54085e-015
lhumerus -36.8429 -14.7007 92.8807
lradius 34.414
lwrist 12.5295
lhand -8.61028 27.5624
lfingers 7.12502
lthumb 17.3216 56.8105
rfemur -2.71223 -12.7943 18.217
rtibia -6.36111e-015
rfoot -7.05721 0.71385
rtoes -15.5976
lfemur -12.5248 8.02042 -16.8834
ltibia 19.0903
lfoot -15.8045 -3.43644
ltoes -28.5872
679
root 1.70663 18.4704 0.17041 23.9024 92.3435 13.6999
lowerback -9.00676 -1.24392 0.565811
upperback -3.06709 -1.62148 0.428273
thorax 1.86616 -0.769352 -0.0437486
lowerneck -15.7982 -1.88578 0.181445
upperneck 21.3446 -2.39244 -0.403528
head 9.32397 -1.06956 -0.457131
rclavicle -1.28173e-015 2.23633e-016
rhumerus -30.5877 -7.70993 -85.3465
rradius 39.1873
rwrist -155.266
rhand -22.7831 -7.44471
rfingers 7.12502
rthumb 3.65252 -37.3932
lclavicle -1.28173e-015 2.23633e-016
lhumerus -36.8823 -14.6394 92.8805
lradius 34.4571
lwrist 12.554
lhand -8.65328 28.2021
lfingers 7.12502
lthumb 17.2802 57.4539
rfemur -2.71251 -12.759 18.35
rtibia 1.03368e-014
rfoot -7.03342 0.69434
rtoes -15.8717
lfemur -12.5359 8.08934 -16.7626
ltibia 19.1167
lfoot -15.7904 -3.42233
ltoes -28.8316
680
root 1.70638 18.4703 0.174119 24.771 92.3543 14.5607
lowerback -9.01659 -1.24147 0.634671
upperback -3.09344 -1.6232 0.437323
thorax 1.84261 -0.769995 -0.0730809
lowerneck -16.0419 -1.67092 0.402936
upperneck 21.863 -2.07428 -0.678058
head 9.5458 -0.926038 -0.554398
rclavicle 1.54617e-014 6.70898e-015
rhumerus -30.5985 -7.70316 -85.3345
rradius 39.1598
rwrist -155.175
rhand -22.7941 -7.55242
rfingers 7.12502
rthumb 3.64198 -37.501
lclavicle 1.54617e-014 6.70898e-015
lhumerus -36.9378 -14.5291 92.8284
lradius 34.5261
lwrist 12.5078
lhand -8.56438 28.6373
lfingers 7.12502
lthumb 17.3657 57.8816
rfemur -2.72764 -12.7512 18.4162
rtibia 8.74653e-015
rfoot -7.05095 0.671487
rtoes -16.1772
lfemur -12.5534 8.07147 -16.7025
ltibia 19.1428
lfoot -15.7667 -3.41465
ltoes -28.6012
681
root 1.70763 18.4703 0.177202 23.9385 92.3705 13.7173
lowerback -9.05791 -1.22508 0.662451
upperback -3.11458 -1.60196 0.396999
thorax 1.84169 -0.75918 -0.128656
lowerneck -16.275 -1.4486 0.725868
upperneck 22.4083 -1.75014 -1.02847
head 9.77688 -0.779991 -0.69417
rclavicle -1.05378e-014 -7.37988e-015
rhumerus -30.6433 -7.75611 -85.3305
rradius 39.1726
rwrist -155.084
rhand -22.8915 -7.68114
rfingers 7.12502
rthumb 3.54787 -37.6314
lclavicle -1.05378e-014 -7.37988e-015
lhumerus -36.957 -14.5924 92.7949
lradius 34.5078
lwrist 12.5656
lhand -8.50911 28.8209
lfingers 7.12502
lthumb 17.4189 58.0604
rfemur -2.72866 -12.7809 18.3913
rtibia -1.59028e-015
rfoot -7.07489 0.682265
rtoes -15.8306
lfemur -12.5631 8.01765 -16.7139
ltibia 19.1701
lfoot -15.7668 -3.43795
ltoes -28.257
682
root 1.7096 18.4709 0.183406 24.0525 92.4221 13.8421
lowerback -9.08556 -1.20319 0.680782
upperback -3.12106 -1.57412 0.398088
thorax 1.84991 -0.745065 -0.135434
lowerneck -16.5098 -1.2067 1.09601
upperneck 22.9284 -1.38679 -1.46693
head 10.0031 -0.62312 -0.867763
rclavicle -1.24735e-014 1.16786e-015
rhumerus -30.6916 -7.79843 -85.2818
rradius 39.1967
rwrist -155.111
rhand -22.9706 -7.63108
rfingers 7.12502
rthumb 3.47152 -37.5826
lclavicle -1.24735e-014 1.16786e-015
lhumerus -36.9724 -14.7601 92.834
lradius 34.5064
lwrist 12.6561
lhand -8.55141 28.9381
lfingers 7.12502
lthumb 17.3782 58.1812
rfemur -2.7026 -12.8234 18.4339
rtibia 3.02153e-014
rfoot -7.12147 0.705272
rtoes -15.9795
lfemur -12.5567 8.02021 -16.6654
ltibia 19.1838
lfoot -15.7579 -3.47313
ltoes -28.2205
